<?xml version="1.0" encoding="UTF-8" standalone="no"?><!DOCTYPE svg PUBLIC "-//W3C//DTD SVG 1.1//EN" "http://www.w3.org/Graphics/SVG/1.1/DTD/svg11.dtd"><svg width="100%" height="100%" viewBox="0 0 6855 1167" version="1.1" xmlns="http://www.w3.org/2000/svg" xmlns:xlink="http://www.w3.org/1999/xlink" xml:space="preserve" xmlns:serif="http://www.serif.com/" style="fill-rule:evenodd;clip-rule:evenodd;stroke-linejoin:round;stroke-miterlimit:1.41421;"><rect id="Artboard1" x="0" y="0" width="6854.17" height="1166.67" style="fill:none;"/><g id="_-3b3b3bff" serif:id="#3b3b3bff"><path d="M3303.67,220.682c119.875,-12.958 243.208,42.708 317.958,136.25c63.667,80.625 91.542,187.958 74.708,289.375c-20.375,94.958 -73.166,186.625 -157,238.792c-96.625,67.208 -228,82.583 -336.75,36.75c-128.5,-49.5 -223.333,-178 -229.125,-316.042c-11.041,-131.833 60.542,-266.375 174.417,-333.083c46.917,-29.375 100.625,-47.334 155.792,-52.042m-12.5,37.417c-93.667,12.125 -180.834,67.791 -231.084,147.75c-62.541,95.333 -70.375,224.166 -16.791,325.208c44.375,93.833 138.375,160.25 240.25,176.375c140.75,26.583 293.333,-54.125 351.125,-185.083c42.541,-91.292 40.541,-202.792 -7.667,-291.542c-58.917,-122.042 -202.958,-192.583 -335.833,-172.708Z" style="fill:#3b3b3b;fill-rule:nonzero;"/><path d="M3835,318.265c106.917,-112.208 292.625,-129.375 424.75,-53.166c7.792,2.916 16.208,10.666 24.875,6.708c30.583,-13.708 58.542,-34.583 92.292,-40.25c99.166,-25.792 210.291,-13.5 295.833,45.125c69.042,45.458 113.625,125.792 115.542,208.5c2.791,143 0.125,286.042 1.041,429.083c-11.208,-0.041 -22.291,-0.041 -33.333,0c-0.208,-125 0.125,-250.041 0.167,-375.041c0.583,-61.834 -6,-128.917 -46.542,-178.709c-54.708,-76.916 -153.708,-110.208 -245.333,-104.791c-54.625,-1.792 -106.792,17.208 -154.917,41.208c6.042,8.083 12.125,16.208 18.083,24.417c95.042,-49.125 217.5,-51.334 307.75,9.583c34.125,19.958 56.959,53.875 73.334,89c14.416,33.5 13.458,71.042 14.416,106.792c-0.291,129.166 -0.333,258.333 -0.291,387.541c-11.209,-0.041 -22.292,-0.041 -33.334,0c-0.166,-131.958 0.084,-263.916 0.25,-395.875c1.75,-47.25 -10.541,-96.625 -43.083,-132.208c-40.542,-47.208 -105.375,-63.042 -165.042,-65.25c-44.833,-0.583 -89.875,7.833 -130.458,27.125c4.708,9 9.5,18 14.208,27.083c37.167,-13.333 75.625,-25.666 115.75,-23.541c57.334,-2 118.542,20.375 152.875,68.166c21.917,27.375 21.459,65.292 22.459,98.584c-0.167,131.958 -0.417,263.916 -0.334,395.916c-11.166,-0.041 -22.25,-0.041 -33.291,0c-0.125,-131.958 -0.084,-263.916 0.416,-395.875c1.084,-32.583 -3.916,-68.916 -28.5,-92.625c-24.458,-26.583 -62.416,-32.75 -96.208,-38.166c-40.542,-6.792 -80.5,6 -118.625,18.5c2.917,9.541 5.917,19.125 8.958,28.708c49.292,-17.042 104.25,-25.25 154.584,-7.625c20.25,6.875 35.458,24.5 42.916,44.125c8,28.875 6.584,59.083 7.584,88.75c-0.25,118.083 -0.375,236.125 -0.334,354.208c-13.208,-0.208 -24.666,0.084 -37.416,0c-0.042,-125.041 -0.375,-250.041 0.541,-375.041c-1.625,-24.375 5.125,-54.125 -14.583,-73.292c-16,-12.292 -37.875,-12.417 -56.958,-14.083c-29.667,-0.125 -67.584,-2.459 -86.167,26.125c-6.083,26.916 -5.167,54.666 -5.708,82.083c0.333,118.083 0.458,236.125 0.291,354.208c-11.166,-0.041 -22.25,-0.041 -33.291,0c-0.792,-138.916 1.25,-277.875 -0.5,-416.75c0.416,-46.958 -18.084,-91.916 -44.5,-129.958c-100,-136.083 -320.709,-150.625 -443.292,-37.417c-43.583,42.542 -67.917,102.709 -69,163.375c-2.917,140.209 -0.042,280.5 -1.083,420.75c-11.167,-0.041 -22.25,-0.041 -33.292,0c1,-145.791 -1.958,-291.666 1.083,-437.416c1.167,-58.792 27.959,-114.375 65.417,-158.584Z" style="fill:#3b3b3b;fill-rule:nonzero;"/><path d="M247.667,251.765c152.75,0.875 305.541,-1.75 458.25,0.959c133.375,1.625 257.125,121.708 250.833,257.333c4.417,93.125 -51.875,183.042 -133.292,226.333c21.875,59.375 46.875,117.584 67.584,177.417c-12.792,-0.292 -25.042,0.208 -37.667,0.125c-20.792,-54.5 -41.125,-109.208 -64.042,-162.833c-8.791,1.916 -17.5,3.958 -26.25,5.916c19.542,52.542 41.042,104.375 60.542,156.917c-12.667,-0.25 -24.917,0.167 -37.5,0.083c-18.875,-50.25 -39.5,-99.791 -59.292,-149.625c-7.208,-0.083 -21.541,-0.208 -28.75,-0.291c20.25,49.708 39.25,99.875 58.584,149.916c-12.584,-0.25 -24.75,0.084 -37.209,-0.041c-18.625,-49.75 -38.75,-98.917 -56.625,-148.959c-7.083,-0.125 -21.25,-0.416 -28.333,-0.583c18.958,49.708 36.458,99.917 55.583,149.542c-12.625,-0.209 -24.958,0.166 -37.5,0.041c-18.791,-49.666 -36.958,-99.583 -55.833,-149.25c-33.042,-0.375 -66.042,-0.5 -99.083,-0.625c0,-11.125 0,-22.166 0,-33.25c77.708,-1.166 155.833,4.084 233.291,-4.375c97.084,-12.041 179.542,-95.791 189.542,-193.25c19.875,-118.75 -82.792,-239.041 -202.042,-243.041c-145.791,-2.792 -291.625,-0.042 -437.416,-0.917c-0.125,208.292 0.041,416.625 -0.084,624.958c-11.083,-0.041 -22.166,-0.041 -33.291,0c0,-220.833 0,-441.666 0,-662.5Z" style="fill:#3b3b3b;fill-rule:nonzero;"/><path d="M1027.75,253.515c12.083,-0.791 24.375,-1.416 36.542,-2.125c0.083,220.959 0.041,441.917 0.041,662.875c-12.666,-0.208 -24.916,0.084 -37.458,0c0.542,-220.25 -1.25,-440.5 0.875,-660.75Z" style="fill:#3b3b3b;fill-rule:nonzero;"/><path d="M1093.5,251.765c12.333,-0.083 25.042,0.042 37.458,0c0.084,220.834 0.042,441.667 0.042,662.5c-12.667,-0.208 -24.917,0.084 -37.458,0c-0.084,-220.833 -0.042,-441.666 -0.042,-662.5Z" style="fill:#3b3b3b;fill-rule:nonzero;"/><path d="M1160.17,251.765c12.333,-0.083 25.041,0.042 37.458,0c0.083,220.834 0.042,441.667 0.042,662.5c-12.709,-0.208 -24.917,0.084 -37.459,0c-0.083,-220.833 -0.041,-441.666 -0.041,-662.5Z" style="fill:#3b3b3b;fill-rule:nonzero;"/><path d="M1226.83,251.765c116.667,-0.041 233.334,-0.041 350,0c-0.25,12.375 0.084,25 0,37.459c-105.541,0.083 -211.125,-0.042 -316.666,0.083c0,7.25 0,21.833 0,29.083c105.541,0.125 211.125,-0.041 316.666,0.084c-0.041,11.083 -0.041,22.166 0,33.25c-105.625,0.958 -211.333,-2.417 -316.875,2.458c0.042,7.75 0.125,23.208 0.167,30.958c105.583,-0.041 211.125,-0.083 316.708,0c-0.041,11.084 -0.041,22.167 0,33.292c-105.583,0.042 -211.125,-0.083 -316.666,0.042c0,26.333 0.041,52.75 0,79.125c99.416,0.375 198.833,-1.084 298.25,1.083c0.583,12.042 1.416,24.25 2.125,36.375c-100.125,0.083 -200.25,0 -300.375,0.042c0,7.291 0,21.875 0,29.166c100,0.042 200,-0.041 300,0.042c-0.25,12.333 0.083,25 0,37.417c-100,0.083 -200,0 -300,0.041c0,7.292 0,21.875 0,29.167c100,0.042 200,-0.042 300,0.042c-0.25,12.291 0.083,25 0,37.416c-100,0.084 -200,0 -300,0.084c-0.042,26.333 0,52.708 0,79.083c105.541,0.083 211.125,-0.042 316.666,0.083c-0.041,11.084 -0.041,22.167 0,33.25c-105.625,0.959 -211.333,-2.416 -316.875,2.459c0.042,7.75 0.125,23.208 0.167,30.958c105.583,-0.042 211.125,-0.083 316.708,0c-0.041,11.042 -0.041,22.167 0,33.25c-105.75,1 -211.541,-2.417 -317.208,2.5c0.5,7.417 1.5,22.208 2.042,29.625c105.041,2.5 210.083,0.75 315.166,1.292c-0.041,11.083 -0.041,22.166 0,33.291c-116.666,0.042 -233.333,0.042 -350,0c-0.041,-220.833 0,-441.666 0,-662.5Z" style="fill:#3b3b3b;fill-rule:nonzero;"/><path d="M1638.96,251.807c167,-0.083 334,-0.125 501.042,0.042c-1.083,11.875 -1.042,24.125 -1.917,36.083c-165.625,2.375 -331.333,1.792 -497,0.417c-0.875,-12.25 -1.375,-24.334 -2.125,-36.542Z" style="fill:#3b3b3b;fill-rule:nonzero;"/><path d="M2210.17,251.765c145.875,0.292 291.75,-0.5 437.583,0.042c93.292,-2.917 187.792,46.375 234.833,127.625c53.459,85.875 47.292,204.5 -14.333,284.708c-22.083,30.042 -52.625,52.084 -83.25,72.584c21.25,59.583 45.792,117.916 67.792,177.208c-13.125,-0.208 -24.917,0.167 -37.667,0.083c-22.333,-53.875 -42.25,-108.666 -64.333,-162.666c-9.334,1.541 -18.625,3.208 -27.917,4.833c21.25,52.5 40.917,105.667 62.25,158.167c-12.917,-0.25 -24.792,-0.042 -37.458,-0.125c-19.792,-49.792 -40.209,-99.334 -59.334,-149.375c-7.208,-0.084 -21.583,-0.292 -28.791,-0.375c19.541,49.958 38.791,100.041 58.458,150c-12.75,-0.292 -24.542,-0.125 -37,-0.292c-18.625,-44.542 -34.375,-90.292 -52.375,-135.042c-3.875,-14.5 -19.708,-15 -32.333,-16.958c14.291,51.625 37.916,100.083 52.833,151.542c-11.792,0.208 -23.542,0.416 -35.25,0.666c-19.417,-49.458 -37.833,-99.333 -55.375,-149.458c-34.208,-0.458 -68.375,-0.75 -102.5,-0.958c-0.042,-11.042 -0.042,-22.042 0,-33.084c76.458,-0.708 153.125,3 229.417,-3.541c102.708,-9.667 192.833,-100.417 196.75,-204.584c14.166,-118.666 -91.375,-231.916 -209.375,-233.041c-143.084,-1.667 -286.209,0.208 -429.292,-0.459c-0.083,208.334 0.083,416.667 -0.042,625c-11.125,-0.041 -22.208,-0.041 -33.291,0c-0.042,-220.833 -0.042,-441.666 0,-662.5Z" style="fill:#3b3b3b;fill-rule:nonzero;"/><path d="M4868.5,251.765c11.708,-0.083 25.292,0.042 37.458,0c0.084,220.834 0.042,441.667 0.042,662.5c-13.292,-0.208 -24.708,0.084 -37.458,0c-0.084,-220.833 -0.084,-441.666 -0.042,-662.5Z" style="fill:#3b3b3b;fill-rule:nonzero;"/><path d="M4935.17,251.765c11.708,-0.083 25.291,0.042 37.458,0c0.083,220.834 0.042,441.667 0.042,662.5c-13.292,-0.208 -24.709,0.084 -37.459,0c-0.083,-220.833 -0.083,-441.666 -0.041,-662.5Z" style="fill:#3b3b3b;fill-rule:nonzero;"/><path d="M5001.88,251.265c11.042,0.459 24.458,1.125 36.125,1.709c3.042,220.416 0.542,440.875 1.333,661.291c-13.291,-0.208 -24.708,0.084 -37.458,0c-0.083,-221 -0.083,-442 0,-663Z" style="fill:#3b3b3b;fill-rule:nonzero;"/><path d="M5068.5,251.765c116.667,-0.041 233.333,-0.041 350,0c-0.875,12.375 0.333,25 0,37.459c-105.583,0.083 -211.125,-0.042 -316.667,0.083c0,7.25 0,21.833 0,29.083c105.542,0.125 211.084,-0.041 316.667,0.084c-0.083,11.083 -0.083,22.166 0,33.25c-105.667,0.958 -211.333,-2.417 -316.875,2.458c0.042,7.75 0.125,23.208 0.167,30.958c105.541,-0.041 211.125,-0.083 316.708,0c-0.083,11.084 -0.083,22.167 0,33.292c-105.583,0.042 -211.125,-0.083 -316.667,0.042c-0.125,26.333 0.042,52.75 0,79.125c99.375,0.375 198.834,-1.084 298.25,1.083c0.209,12.042 1.5,24.25 2.125,36.375c-100.166,0.083 -200.291,0 -300.375,0.042c0,7.291 0,21.875 0,29.166c100,0.042 199.959,-0.041 300,0.042c-0.875,12.333 0.334,25 0,37.417c-100.041,0.083 -200,0 -300,0.041c0,7.292 0,21.875 0,29.167c100.125,0.042 200.292,-0.042 300.459,0.042c-1.625,11.833 -0.625,24.166 -1.667,36.125c-99.625,2.583 -199.208,0.916 -298.792,1.375c-0.125,26.333 0.042,52.708 0,79.083c105.542,0.083 211.084,-0.042 316.667,0.083c-0.083,11.084 -0.083,22.167 0,33.25c-105.667,0.959 -211.333,-2.416 -316.875,2.459c0.042,7.75 0.125,23.208 0.167,30.958c105.541,-0.042 211.125,-0.083 316.708,0c-0.083,11.083 -0.083,22.167 0,33.292c-105.583,0.041 -211.125,-0.084 -316.667,0.041c-0.083,11.084 -0.083,22.167 0,33.292c105.542,0.042 211.084,-0.083 316.667,0.042c-0.083,11.083 -0.083,22.166 0,33.291c-116.667,0.042 -233.333,0.042 -350,0c-0.042,-220.833 -0.042,-441.666 0,-662.5Z" style="fill:#3b3b3b;fill-rule:nonzero;"/><path d="M5497.67,251.765c11.041,0 22.125,0 33.333,0c0,220.834 0,441.667 0,662.5c-11.208,-0.041 -22.292,-0.041 -33.333,0c-0.042,-220.833 -0.042,-441.666 0,-662.5Z" style="fill:#3b3b3b;fill-rule:nonzero;"/><path d="M5564.33,251.765c11.042,0 22.125,0 33.334,0c0,220.834 0,441.667 0,662.5c-11.209,-0.041 -22.292,-0.041 -33.334,0c-0.041,-220.833 -0.041,-441.666 0,-662.5Z" style="fill:#3b3b3b;fill-rule:nonzero;"/><path d="M5627.75,253.515c11.625,-0.791 24.417,-1.416 36.542,-2.125c0.083,220.959 0.041,441.917 0.041,662.875c-13.416,-0.208 -24.666,0.084 -37.458,0c0.5,-220.25 -1.292,-440.5 0.875,-660.75Z" style="fill:#3b3b3b;fill-rule:nonzero;"/><path d="M5693.5,251.765c118.25,-0.041 236.542,-0.083 354.833,0.042c-1.833,11.917 -0.75,24.125 -1.916,36.125c-105.125,2.667 -210.292,0.792 -315.417,1.375c0,7.25 0,21.833 0,29.083c105.542,0.125 211.083,-0.041 316.667,0.084c-0.084,11.083 -0.125,22.166 0,33.291c-105.584,0.042 -211.125,-0.083 -316.667,0.042c-0.083,11.083 -0.083,22.167 0,33.292c105.542,0.041 211.083,-0.084 316.667,0.041c-0.084,11.084 -0.125,22.167 0,33.292c-105.584,0.042 -211.125,-0.083 -316.667,0.042c-0.125,26.333 0,52.75 0,79.125c98.583,0 197.208,0 295.833,0.041c-0.958,12.334 0.334,25 0,37.459c-98.625,0 -197.25,0 -295.833,0c0,7.291 0,21.875 0,29.166c98.583,0 197.208,-0.041 295.833,0.042c-0.958,12.333 0.334,25 0,37.458c-98.625,0 -197.25,0 -295.833,0c0,7.292 0,21.875 0,29.167c98.583,0 197.208,-0.042 295.833,0.042c-0.958,12.291 0.334,25 0,37.458c-98.625,0 -197.25,0 -295.833,0.042c-0.125,26.333 0,52.708 0,79.083c105.5,0.083 211.083,-0.042 316.667,0.083c-0.084,11.084 -0.125,22.167 0,33.292c-105.584,0.042 -211.125,-0.083 -316.667,0.042c-0.083,11.083 -0.083,22.166 0,33.291c105.542,0.042 211.083,-0.083 316.667,0.042c-0.084,11.083 -0.125,22.167 0,33.292c-105.584,0.041 -211.125,-0.084 -316.667,0.041c-0.083,11.084 -0.083,22.167 0,33.292c105.542,0.042 211.083,-0.083 316.667,0.042c-0.084,11.083 -0.125,22.166 0,33.291c-118.084,0.042 -236.125,0.042 -354.125,0c-0.084,-220.833 -0.084,-441.666 -0.042,-662.5Z" style="fill:#3b3b3b;fill-rule:nonzero;"/><path d="M6110.17,251.807c165.416,-0.083 330.875,-0.083 496.333,0c-1.875,11.917 -0.583,24.125 -1.708,36.125c-164.875,2.958 -329.792,0.625 -494.625,1.333c-0.959,-12.625 0.375,-24.958 0,-37.458Z" style="fill:#3b3b3b;fill-rule:nonzero;"/><path d="M3303.67,287.224c123.5,-17.375 249.958,57.25 302.333,168.791c45,92.042 37.042,206.875 -20.833,291.584c-73.959,119.083 -240.334,167.958 -367.375,108.958c-99.75,-41.917 -172.209,-142.375 -177.959,-250.708c-10.833,-113.542 52.042,-231 153.75,-283.125c33.875,-18.792 71.5,-31 110.084,-35.5m32.416,33.5c-45.5,0.333 -90.833,12.208 -130.125,35.125c-105.041,55.583 -158.458,191.625 -120.208,304c25.958,94.5 111.542,168.666 208.208,182.833c104.75,18.625 219.875,-33.833 270.209,-128.5c45.458,-76.167 46.041,-176.333 4.291,-254.083c-42.916,-85.334 -137.291,-140.25 -232.375,-139.375Z" style="fill:#3b3b3b;fill-rule:nonzero;"/><path d="M3934.83,322.14c84.625,-46.875 192.167,-49.625 279.375,-7.583c44.5,23 82.875,60.375 100.709,107.833c16.25,49.75 16.125,102.667 16.333,154.375c-0.333,112.5 -0.25,225 -0.292,337.5c-13.166,-0.208 -24.708,0.084 -37.458,0c-0.75,-138.916 1.125,-277.875 -0.417,-416.75c0.834,-53.666 -25.625,-107.5 -70.458,-137.458c-54.333,-37.417 -123.167,-42.542 -187,-36.75c-45.167,8.5 -91.375,25.25 -122.667,60.417c-34.833,33.375 -45.666,83.875 -44.416,130.416c-0.75,133.375 0.416,266.75 -0.084,400.125c-11.166,-0.041 -22.25,-0.041 -33.291,0c1,-145.791 -1.959,-291.666 1.083,-437.416c0.833,-64.75 44.542,-122.5 98.583,-154.709Z" style="fill:#3b3b3b;fill-rule:nonzero;"/><path d="M314.333,318.432c125.042,0.125 250.042,-0.125 375.042,-0.292c79.333,-3.75 158.75,46.417 189.083,119.667c27.334,64.875 12.792,145.5 -36.166,196.167c-32.709,38 -81.75,62.166 -132.167,62.75c-70.792,2.916 -141.667,0.208 -212.458,0.791c0,-11.125 0,-22.208 0,-33.291c69.416,-0.417 138.875,1.708 208.25,-0.792c73.125,-3.208 143.875,-62.083 149.125,-137.25c10.958,-65.583 -30.792,-132.25 -90.709,-157.708c-30.916,-14.875 -66.416,-15 -99.916,-16.459c-105.584,-1.25 -211.167,0.25 -316.709,-0.208c-0.166,187.458 0.042,374.958 -0.083,562.458c-11.083,-0.041 -22.208,-0.041 -33.292,0c0,-198.625 -0.041,-397.208 0,-595.833Z" style="fill:#3b3b3b;fill-rule:nonzero;"/><path d="M1639.33,318.432c166.667,-0.042 333.334,-0.042 500,0.042c-0.041,11.083 -0.041,22.166 0,33.291c-166.666,0 -333.333,0.042 -500,-0.041c-0.041,-11.084 0,-22.209 0,-33.292Z" style="fill:#3b3b3b;fill-rule:nonzero;"/><path d="M2272.67,318.432c118.083,0.083 236.125,-0.083 354.208,-0.333c40.583,0.791 84.5,-0.25 120.458,21.75c51.334,30.166 98.584,79.125 103.167,141.625c18,101.333 -64.25,205 -165.875,214.208c-76.125,5.167 -152.458,0.708 -228.625,1.833c-0.042,-11.125 -0.042,-22.208 0,-33.291c70.792,-0.5 141.625,1.75 212.417,-0.667c72.333,-4.958 140.666,-62.083 147.25,-136.125c15.875,-85.875 -61.792,-170.042 -146.5,-172.875c-119.542,-6.417 -239.334,-1.208 -358.959,-2.792c-0.125,187.5 0.042,375 -0.083,562.5c-12.833,-0.208 -24.833,0.084 -37.417,0c-0.083,-198.625 -0.083,-397.208 -0.041,-595.833Z" style="fill:#3b3b3b;fill-rule:nonzero;"/><path d="M6110.17,318.432c165.25,-0.042 330.541,-0.042 495.833,0c-0.125,11.083 -0.125,22.208 0,33.333c-165.292,0 -330.583,0.042 -495.833,0c-0.084,-11.125 -0.084,-22.25 0,-33.333Z" style="fill:#3b3b3b;fill-rule:nonzero;"/><path d="M3303.62,353.849c87.542,-15.375 179.542,28.375 226.917,102.416c47.75,69.917 52.083,168.209 8.125,240.959c-39.417,72.208 -120.542,121.333 -203.5,117.291c-122.25,5.042 -235.417,-106.5 -229.375,-229.375c-6.917,-112.666 87.333,-218 197.833,-231.291m20.708,32.833c-77.833,3.292 -146.958,58.583 -173.958,130.333c-16.625,45.584 -12.958,96.459 3.208,141.667c32.25,78.542 119.375,133.375 204.709,120.042c85.916,-6.834 161.25,-79.292 172.875,-164.375c6.208,-47.209 -1.167,-98.292 -29,-137.834c-37.25,-58.75 -108.084,-96.083 -177.834,-89.833Z" style="fill:#3b3b3b;fill-rule:nonzero;"/><path d="M3940.75,399.099c51.667,-49.334 131,-54.167 198.083,-42.5c63.709,10.75 121.167,64.375 123,131.208c5.959,142.042 0.834,284.333 2.459,426.458c-13.167,-0.208 -24.709,0.084 -37.459,0c-0.375,-131.958 0.375,-263.958 0.125,-395.916c0.209,-30.417 0.042,-65.917 -24.041,-88.542c-32.209,-37.625 -84.042,-42.375 -130.125,-44.125c-44.834,2.208 -93.709,15.208 -121.292,53.333c-20.167,27.542 -14.75,64.084 -16.625,96.042c0.167,126.375 0.458,252.792 0.25,379.208c-13.083,-0.208 -24.708,0.084 -37.417,0c0.042,-125.041 -0.166,-250.041 -0.291,-375.083c0.041,-48.875 3.791,-105.5 43.333,-140.083Z" style="fill:#3b3b3b;fill-rule:nonzero;"/><path d="M381.042,385.099c104.166,0.375 208.375,-0.667 312.541,-0.125c73.625,-6.125 144.542,65.333 131.5,139.5c-6.958,56.25 -57.166,105.791 -114.958,105.5c-70.792,3.083 -141.667,0.25 -212.458,0.875c0,-11.125 0,-22.25 0,-33.334c69.291,-0.708 138.666,2.75 207.875,-1.5c44.916,-1.375 86.083,-40.125 83.916,-86.083c4.5,-25.625 -9.791,-50.958 -29.333,-66.458c-24.5,-25.792 -63.333,-23.125 -95.667,-25.042c-83.375,-1.083 -166.75,0.583 -250.083,0.042c-0.125,165.25 0.042,330.5 -0.042,495.791c-11.125,-0.041 -22.208,-0.041 -33.333,0c0,-176.375 -0.042,-352.791 0.042,-529.166Z" style="fill:#3b3b3b;fill-rule:nonzero;"/><path d="M1639.33,385.099c166.667,-0.042 333.334,-0.042 500,0.041c-0.041,11.084 -0.041,22.167 0,33.292c-166.666,0 -333.333,0.042 -500,-0.042c-0.041,-11.083 0,-22.208 0,-33.291Z" style="fill:#3b3b3b;fill-rule:nonzero;"/><path d="M2339.38,385.099c111.083,1.041 222.25,-2.042 333.333,0.791c63.875,5.375 122.292,66.375 112.417,132.417c-1,60.292 -56.25,113.583 -116.667,111.875c-70.791,2.625 -141.666,0.125 -212.458,0.667c-0.042,-11.125 -0.042,-22.209 0,-33.334c69.458,-0.541 138.958,2.042 208.375,-0.625c36.833,-2.541 77.833,-26.5 83.542,-65.833c18.25,-51.375 -26.667,-105.792 -77.917,-110.167c-97.583,-6 -195.458,-0.958 -293.125,-2.416c-0.125,165.25 0.042,330.5 -0.042,495.791c-12.875,-0.208 -24.833,0.084 -37.458,0c-0.083,-176.375 -0.083,-352.791 0,-529.166Z" style="fill:#3b3b3b;fill-rule:nonzero;"/><path d="M6110.17,385.099c165.25,-0.042 330.541,-0.042 495.833,0c-0.125,11.083 -0.125,22.208 0,33.333c-165.292,0 -330.583,0.042 -495.833,0c-0.084,-11.125 -0.084,-22.25 0,-33.333Z" style="fill:#3b3b3b;fill-rule:nonzero;"/><path d="M3303.67,420.599c57,-12.25 118.458,8.208 156.458,52.041c53.125,56.5 57.167,152.084 8.458,212.584c-37.166,48.541 -102.083,73.416 -162.125,61.625c-80.041,-12.792 -142.291,-91.667 -135.958,-172.625c2.167,-73.084 60.708,-142.084 133.167,-153.625m16.541,33.083c-43.916,3.292 -83.041,33.958 -101.333,73.25c-25.708,47.792 -13.958,112.083 25.292,149.125c31.166,33.042 80.791,46.125 124.5,34.292c68.875,-14.625 116.458,-93.625 93.958,-161.125c-15,-60.667 -80.042,-106.625 -142.417,-95.542Z" style="fill:#3b3b3b;fill-rule:nonzero;"/><path d="M3993.92,439.807c29.666,-25.333 71.708,-21.125 107.791,-20.833c28.875,-0.584 57.292,9.541 78.667,29.25c21.458,28.625 15.833,66 17.625,99.333c-0.375,122.25 -0.375,244.458 -0.333,366.708c-13.167,-0.208 -24.75,0.084 -37.5,0c-0.459,-138.958 0.5,-277.916 0.208,-416.875c1.083,-17.541 -10.083,-35.416 -27.75,-39.166c-37.458,-8.167 -79.583,-12.334 -115.042,5.291c-20.333,12 -13.916,39.584 -15.916,58.959c-0.25,130.583 0.5,261.166 0.166,391.791c-13.125,-0.208 -24.75,0.084 -37.458,0c0.208,-132 -0.458,-264 -0.208,-396c0.166,-27.875 3.333,-62.416 29.75,-78.458Z" style="fill:#3b3b3b;fill-rule:nonzero;"/><path d="M1772.71,435.099c11.042,0 22.167,0 33.292,0c0,159.708 0.042,319.458 -0.042,479.166c-11.125,-0.041 -22.208,-0.041 -33.291,0c-0.042,-159.75 -0.042,-319.458 0.041,-479.166Z" style="fill:#3b3b3b;fill-rule:nonzero;"/><path d="M1839.38,435.099c11.042,0 22.167,0 33.292,0c0,159.708 0.041,319.458 -0.042,479.166c-11.125,-0.041 -22.208,-0.041 -33.292,0c-0.041,-159.75 -0.041,-319.458 0.042,-479.166Z" style="fill:#3b3b3b;fill-rule:nonzero;"/><path d="M1906.04,435.099c11.041,0 22.166,0 33.291,0c0,159.708 0.042,319.458 -0.041,479.166c-11.125,-0.041 -22.209,-0.041 -33.292,0c-0.042,-159.75 -0.042,-319.458 0.042,-479.166Z" style="fill:#3b3b3b;fill-rule:nonzero;"/><path d="M1969.38,436.849c12,-0.792 24.417,-1.417 36.583,-2.125c0.084,159.833 0.042,319.708 0,479.541c-12.791,-0.208 -24.833,0.084 -37.416,0c0.5,-159.125 -1.292,-318.291 0.833,-477.416Z" style="fill:#3b3b3b;fill-rule:nonzero;"/><path d="M6239.38,435.099c11.458,-0.125 25.333,0.041 37.417,0c0.041,159.708 0.041,319.458 0,479.166c-13.459,-0.208 -24.584,0.084 -37.417,0c-0.083,-159.75 -0.083,-319.458 0,-479.166Z" style="fill:#3b3b3b;fill-rule:nonzero;"/><path d="M6306.04,435.099c11.458,-0.125 25.333,0.041 37.416,0c0.042,159.708 0.042,319.458 0,479.166c-13.5,-0.208 -24.583,0.084 -37.416,0c-0.084,-159.75 -0.084,-319.458 0,-479.166Z" style="fill:#3b3b3b;fill-rule:nonzero;"/><path d="M6372.71,435.099c11,0 22.084,0 33.292,0c0,159.708 0,319.458 -0.042,479.166c-11.208,-0.041 -22.291,-0.041 -33.291,0c-0.042,-159.75 -0.042,-319.458 0.041,-479.166Z" style="fill:#3b3b3b;fill-rule:nonzero;"/><path d="M6439.38,435.099c11,0 22.083,0 33.292,0c0,159.708 0,319.458 -0.042,479.166c-11.208,-0.041 -22.292,-0.041 -33.292,0c-0.041,-159.75 -0.041,-319.458 0.042,-479.166Z" style="fill:#3b3b3b;fill-rule:nonzero;"/><path d="M443.542,451.807c90.041,1.25 180.208,-2.917 270.208,1.417c32.833,3.208 54.75,40 44.458,71.083c-6.458,24.542 -29.791,42.708 -55.666,41.25c-67.5,6 -135.459,2.667 -203.125,1.875c-0.75,-12.292 -1.417,-24.375 -2.125,-36.542c69.375,-0.75 138.833,2.5 208.166,-1.25c19.084,-0.291 15.125,-25.5 20,-37.875c-80.833,-12.666 -163,-4.916 -244.458,-6.625c-0.125,143.209 0.125,286.417 -0.042,429.625c-12.125,-0.833 -24.041,-0.958 -36.125,-1.708c-2.958,-153.75 -0.625,-307.5 -1.291,-461.25Z" style="fill:#3b3b3b;fill-rule:nonzero;"/><path d="M2406.04,451.807c89.958,1.417 180.125,-3.25 270.041,1.625c36.959,5.75 55.792,49.583 38.459,81.792c-6.042,25.208 -36,28.125 -57,30.916c-66.5,5 -133.25,2.167 -199.792,1.292c-0.958,-12.292 -1.375,-24.333 -2.125,-36.542c69.583,-0.666 139.208,1.959 208.75,-0.5c14.5,-0.416 26.083,-17.583 20.458,-31.708c-8.5,-11.042 -23.875,-14.333 -37.125,-13c-68.041,-2.458 -136.125,0 -204.208,-0.542c-0.125,143.042 0.083,286.084 0,429.125c-12.875,-0.208 -24.833,0.084 -37.458,0c-0.084,-154.166 -0.084,-308.291 0,-462.458Z" style="fill:#3b3b3b;fill-rule:nonzero;"/></g></svg>